<svg width="678" height="298" viewBox="0 0 678 298" fill="none" xmlns="http://www.w3.org/2000/svg">
<path d="M7.2 182V113.36H32.448C39.488 113.36 45.12 114.928 49.344 118.064C53.632 121.136 55.776 125.552 55.776 131.312C55.776 134.256 55.072 137.072 53.664 139.76C52.256 142.384 50.304 144.432 47.808 145.904V146.096C51.456 147.184 54.144 149.2 55.872 152.144C57.664 155.024 58.56 158.16 58.56 161.552C58.56 168.528 56.096 173.68 51.168 177.008C46.24 180.336 40 182 32.448 182H7.2ZM24 139.952H32.64C34.624 139.952 36.128 139.344 37.152 138.128C38.176 136.912 38.688 135.408 38.688 133.616C38.688 131.888 38.144 130.48 37.056 129.392C36.032 128.304 34.464 127.76 32.352 127.76H24V139.952ZM24 167.6H34.08C36.384 167.6 38.176 166.928 39.456 165.584C40.736 164.176 41.376 162.448 41.376 160.4C41.376 158.352 40.768 156.688 39.552 155.408C38.336 154.064 36.544 153.392 34.176 153.392H24V167.6ZM69.3563 182V113.36H112.364V127.76H86.1562V140.24H107.084V154.64H86.1562V167.6H113.708V182H69.3563ZM138.977 182V153.872L116.321 113.36H135.425L143.201 129.872L147.329 139.76H147.521C148.801 136.304 150.177 133.008 151.649 129.872L159.329 113.36H178.433L155.777 153.872V182H138.977ZM177.362 147.248C177.362 137.264 180.722 128.944 187.442 122.288C194.162 115.568 202.77 112.208 213.266 112.208C223.762 112.208 232.37 115.568 239.09 122.288C245.81 128.944 249.17 137.264 249.17 147.248C249.17 157.488 245.81 166.032 239.09 172.88C232.37 179.728 223.762 183.152 213.266 183.152C202.77 183.152 194.162 179.728 187.442 172.88C180.722 166.032 177.362 157.488 177.362 147.248ZM194.738 147.248C194.738 153.136 196.466 158.032 199.922 161.936C203.442 165.84 207.89 167.792 213.266 167.792C218.642 167.792 223.058 165.84 226.514 161.936C230.034 158.032 231.794 153.136 231.794 147.248C231.794 141.616 230.034 136.944 226.514 133.232C223.058 129.456 218.642 127.568 213.266 127.568C207.89 127.568 203.442 129.456 199.922 133.232C196.466 136.944 194.738 141.616 194.738 147.248ZM259.856 182V113.36H276.848L295.856 145.424C296.624 146.768 297.488 148.432 298.448 150.416C299.408 152.336 300.176 153.936 300.752 155.216L301.616 157.136H301.808C301.296 152.208 301.04 148.304 301.04 145.424V113.36H317.84V182H300.944L281.84 150.032C281.072 148.688 280.208 147.056 279.248 145.136C278.288 143.152 277.52 141.52 276.944 140.24L276.08 138.32H275.888C276.4 143.248 276.656 147.152 276.656 150.032V182H259.856ZM332.231 182V113.36H356.615C367.495 113.36 376.103 116.4 382.439 122.48C388.839 128.496 392.039 136.848 392.039 147.536C392.039 158.288 388.839 166.736 382.439 172.88C376.103 178.96 367.495 182 356.615 182H332.231ZM349.031 167.6H355.943C361.831 167.6 366.407 165.872 369.671 162.416C372.999 158.96 374.663 154 374.663 147.536C374.663 141.136 372.999 136.24 369.671 132.848C366.343 129.456 361.767 127.76 355.943 127.76H349.031V167.6ZM424.325 182L429.989 113.36H448.229L458.213 142.352L461.669 153.68H461.861C463.141 149.072 464.293 145.296 465.317 142.352L475.301 113.36H493.541L499.109 182H482.309L480.197 151.088C480.069 149.552 480.005 147.824 480.005 145.904C480.005 143.984 480.037 142.448 480.101 141.296L480.197 139.568H480.005C478.469 144.368 477.189 148.208 476.165 151.088L468.965 170.96H454.565L447.365 151.088L443.525 139.568H443.333C443.589 143.792 443.589 147.632 443.333 151.088L441.221 182H424.325ZM510.919 182V113.36H553.927V127.76H527.719V140.24H548.647V154.64H527.719V167.6H555.271V182H510.919ZM558.556 182L581.884 113.36H599.548L622.876 182H605.596L601.372 167.6H579.964L575.836 182H558.556ZM583.9 154.16H597.436L593.596 140.816L590.812 129.008H590.62C589.596 134 588.668 137.936 587.836 140.816L583.9 154.16ZM639.234 182V127.76H618.402V113.36H676.866V127.76H656.034V182H639.234Z" fill="#2E282A"/>
<circle cx="337" cy="149" r="149" fill="#75C154"/>
<mask id="mask0" mask-type="alpha" maskUnits="userSpaceOnUse" x="188" y="0" width="298" height="298">
<circle cx="337" cy="149" r="149" fill="#75C154"/>
</mask>
<g mask="url(#mask0)">
<path d="M5.2 182V113.36H30.448C37.488 113.36 43.12 114.928 47.344 118.064C51.632 121.136 53.776 125.552 53.776 131.312C53.776 134.256 53.072 137.072 51.664 139.76C50.256 142.384 48.304 144.432 45.808 145.904V146.096C49.456 147.184 52.144 149.2 53.872 152.144C55.664 155.024 56.56 158.16 56.56 161.552C56.56 168.528 54.096 173.68 49.168 177.008C44.24 180.336 38 182 30.448 182H5.2ZM22 139.952H30.64C32.624 139.952 34.128 139.344 35.152 138.128C36.176 136.912 36.688 135.408 36.688 133.616C36.688 131.888 36.144 130.48 35.056 129.392C34.032 128.304 32.464 127.76 30.352 127.76H22V139.952ZM22 167.6H32.08C34.384 167.6 36.176 166.928 37.456 165.584C38.736 164.176 39.376 162.448 39.376 160.4C39.376 158.352 38.768 156.688 37.552 155.408C36.336 154.064 34.544 153.392 32.176 153.392H22V167.6ZM67.3563 182V113.36H110.364V127.76H84.1562V140.24H105.084V154.64H84.1562V167.6H111.708V182H67.3563ZM136.977 182V153.872L114.321 113.36H133.425L141.201 129.872L145.329 139.76H145.521C146.801 136.304 148.177 133.008 149.649 129.872L157.329 113.36H176.433L153.777 153.872V182H136.977ZM175.362 147.248C175.362 137.264 178.722 128.944 185.442 122.288C192.162 115.568 200.77 112.208 211.266 112.208C221.762 112.208 230.37 115.568 237.09 122.288C243.81 128.944 247.17 137.264 247.17 147.248C247.17 157.488 243.81 166.032 237.09 172.88C230.37 179.728 221.762 183.152 211.266 183.152C200.77 183.152 192.162 179.728 185.442 172.88C178.722 166.032 175.362 157.488 175.362 147.248ZM192.738 147.248C192.738 153.136 194.466 158.032 197.922 161.936C201.442 165.84 205.89 167.792 211.266 167.792C216.642 167.792 221.058 165.84 224.514 161.936C228.034 158.032 229.794 153.136 229.794 147.248C229.794 141.616 228.034 136.944 224.514 133.232C221.058 129.456 216.642 127.568 211.266 127.568C205.89 127.568 201.442 129.456 197.922 133.232C194.466 136.944 192.738 141.616 192.738 147.248ZM257.856 182V113.36H274.848L293.856 145.424C294.624 146.768 295.488 148.432 296.448 150.416C297.408 152.336 298.176 153.936 298.752 155.216L299.616 157.136H299.808C299.296 152.208 299.04 148.304 299.04 145.424V113.36H315.84V182H298.944L279.84 150.032C279.072 148.688 278.208 147.056 277.248 145.136C276.288 143.152 275.52 141.52 274.944 140.24L274.08 138.32H273.888C274.4 143.248 274.656 147.152 274.656 150.032V182H257.856ZM330.231 182V113.36H354.615C365.495 113.36 374.103 116.4 380.439 122.48C386.839 128.496 390.039 136.848 390.039 147.536C390.039 158.288 386.839 166.736 380.439 172.88C374.103 178.96 365.495 182 354.615 182H330.231ZM347.031 167.6H353.943C359.831 167.6 364.407 165.872 367.671 162.416C370.999 158.96 372.663 154 372.663 147.536C372.663 141.136 370.999 136.24 367.671 132.848C364.343 129.456 359.767 127.76 353.943 127.76H347.031V167.6ZM422.325 182L427.989 113.36H446.229L456.213 142.352L459.669 153.68H459.861C461.141 149.072 462.293 145.296 463.317 142.352L473.301 113.36H491.541L497.109 182H480.309L478.197 151.088C478.069 149.552 478.005 147.824 478.005 145.904C478.005 143.984 478.037 142.448 478.101 141.296L478.197 139.568H478.005C476.469 144.368 475.189 148.208 474.165 151.088L466.965 170.96H452.565L445.365 151.088L441.525 139.568H441.333C441.589 143.792 441.589 147.632 441.333 151.088L439.221 182H422.325ZM508.919 182V113.36H551.927V127.76H525.719V140.24H546.647V154.64H525.719V167.6H553.271V182H508.919ZM556.556 182L579.884 113.36H597.548L620.876 182H603.596L599.372 167.6H577.964L573.836 182H556.556ZM581.9 154.16H595.436L591.596 140.816L588.812 129.008H588.62C587.596 134 586.668 137.936 585.836 140.816L581.9 154.16ZM637.234 182V127.76H616.402V113.36H674.866V127.76H654.034V182H637.234Z" fill="white"/>
</g>
</svg>
