<svg height="512" viewBox="0 0 54 59" width="512" xmlns="http://www.w3.org/2000/svg"><g id="005---Bread-Roll"><path id="Shape" d="m19 12c-1.05 0-1.51-1.4-.21-2.71.29-.28.29-.3 0-.58-.4943288-.43186785-.7815832-1.05364647-.79-1.71 0-1.31 1-1.73 1-2 0-.55228475.4477153-1 1-1 1.05 0 1.51 1.4.21 2.71-.29.28-.29.3 0 .58.4943288.43186785.7815832 1.05364647.79 1.71 0 1.31-1 1.73-1 2 0 .5522847-.4477153 1-1 1z"/><path id="Shape" d="m26 8c-1 0-1.51-1.41-.21-2.71.29-.28.29-.3 0-.58-.4943288-.43186785-.7815832-1.05364647-.79-1.71 0-1.31 1-1.73 1-2 0-.55228475.4477153-1 1-1 1.05 0 1.51 1.4.21 2.71-.29.28-.29.3 0 .58.4964254.43029463.7841403 1.05306977.79 1.71 0 1.31-1 1.73-1 2 0 .55228475-.4477153 1-1 1z"/><path id="Shape" d="m33 10c-1 0-1.51-1.41-.21-2.71.29-.28.29-.3 0-.58-.4943288-.43186785-.7815832-1.05364647-.79-1.71 0-1.31 1-1.73 1-2 0-.55228475.4477153-1 1-1 1 0 1.51 1.4.21 2.71-.29.28-.29.3 0 .58.4964254.43029463.7841403 1.05306977.79 1.71 0 1.31-1 1.73-1 2 0 .55228475-.4477153 1-1 1z"/><path id="Shape" d="m27 16c-13 0-27 12-27 24 0 19 18 19 27 19s27 0 27-19c0-12-14-24-27-24zm-.71 4.29c.1877666-.1893127.4433625-.2957983.71-.2957983s.5222334.1064856.71.2957983l1 1c.3921222.3921222.3921222 1.0278778 0 1.42s-1.0278778.3921222-1.42 0l-1-1c-.1893127-.1877666-.2957983-.4433625-.2957983-.71s.1064856-.5222334.2957983-.71zm-18.58 16.42c-.1877666.1893127-.44336246.2957983-.71.2957983s-.5222334-.1064856-.71-.2957983l-1-1c-.39212214-.3921222-.39212212-1.0278778.00000004-1.42.39212215-.3921221 1.02787778-.3921221 1.41999996 0l1 1c.18931265.1877666.29579832.4433625.29579832.71s-.10648567.5222334-.29579832.71zm3.4-7-1 1c-.39212217.3921222-1.02787783.3921222-1.42 0s-.39212217-1.0278778 0-1.42l1-1c.3921222-.3921222 1.0278778-.3921222 1.42 0s.3921222 1.0278778 0 1.42zm8.6 3-1 1c-.3921222.3921221-1.0278778.3921221-1.42 0-.3921221-.3921222-.3921221-1.0278778 0-1.42l1-1c.3921222-.3921221 1.0278778-.3921221 1.42 0 .3921221.3921222.3921221 1.0278778 0 1.42zm1-6c-.1877666.1893127-.4433625.2957983-.71.2957983s-.5222334-.1064856-.71-.2957983l-1-1c-.3921222-.3921222-.3921222-1.0278778 0-1.42s1.0278778-.3921222 1.42 0l1 1c.1893127.1877666.2957983.4433625.2957983.71s-.1064856.5222334-.2957983.71zm7 10c-.1877666.1893127-.4433625.2957983-.71.2957983s-.5222334-.1064856-.71-.2957983l-1-1c-.3921221-.3921222-.3921221-1.0278778 0-1.42.3921222-.3921221 1.0278778-.3921221 1.42 0l1 1c.1893127.1877666.2957983.4433625.2957983.71s-.1064856.5222334-.2957983.71zm3-8-1 1c-.3921222.3921221-1.0278778.3921221-1.42 0-.3921221-.3921222-.3921221-1.0278778 0-1.42l1-1c.3921222-.3921221 1.0278778-.3921221 1.42 0 .3921221.3921222.3921221 1.0278778 0 1.42zm7 6c-.1877666.1893127-.4433625.2957983-.71.2957983s-.5222334-.1064856-.71-.2957983l-1-1c-.2536586-.2536586-.3527235-.623374-.259878-.969878.0928454-.3465041.3634959-.6171546.71-.71.346504-.0928455.7162194.0062194.969878.259878l1 1c.1893127.1877666.2957983.4433625.2957983.71s-.1064856.5222334-.2957983.71zm0-10-1 1c-.2536586.2536586-.623374.3527235-.969878.259878-.3465041-.0928454-.6171546-.3634959-.71-.71-.0928455-.346504.0062194-.7162194.259878-.969878l1-1c.3921222-.3921221 1.0278778-.3921221 1.42 0 .3921221.3921222.3921221 1.0278778 0 1.42zm5 4-1 1c-.3921222.3921221-1.0278778.3921221-1.42 0-.3921221-.3921222-.3921221-1.0278778 0-1.42l1-1c.3921222-.3921221 1.0278778-.3921221 1.42 0 .3921221.3921222.3921221 1.0278778 0 1.42zm5 7-1 1c-.3921222.3921222-1.0278778.3921222-1.42 0s-.3921222-1.0278778 0-1.42l1-1c.2536586-.2536586.623374-.3527235.969878-.259878.3465041.0928454.6171546.3634959.71.71.0928455.346504-.0062194.7162194-.259878.969878z"/></g></svg>