<?xml version="1.0" encoding="utf-8"?>
<!-- Generator: Adobe Illustrator 24.2.0, SVG Export Plug-In . SVG Version: 6.00 Build 0)  -->
<svg version="1.1" id="Capa_1" xmlns="http://www.w3.org/2000/svg" xmlns:xlink="http://www.w3.org/1999/xlink" x="0px" y="0px"
	 viewBox="0 0 489.4 489.4" style="enable-background:new 0 0 489.4 489.4;" xml:space="preserve">
<style type="text/css">
	.st0{fill:none;stroke:#000000;stroke-width:2;stroke-miterlimit:10;stroke-dasharray:11.8814,11.8814;}
	.st1{fill:none;stroke:#000000;stroke-width:2;stroke-miterlimit:10;stroke-dasharray:11.4281,11.4281;}
	.st2{fill:none;stroke:#000000;stroke-width:2;stroke-miterlimit:10;stroke-dasharray:12.8684,12.8684;}
	.st3{fill:none;stroke:#000000;stroke-width:2;stroke-miterlimit:10;stroke-dasharray:12.6123,12.6123;}
	.st4{fill:none;stroke:#000000;stroke-width:2;stroke-miterlimit:10;stroke-dasharray:11.8577,11.8577;}
	.st5{fill:none;stroke:#000000;stroke-width:2;stroke-miterlimit:10;stroke-dasharray:12.9915,12.9915;}
	.st6{fill:none;stroke:#000000;stroke-width:2;stroke-miterlimit:10;}
	.st7{fill:none;stroke:#000000;stroke-width:2;stroke-miterlimit:10;stroke-dasharray:12.1435,12.1435;}
	.st8{fill:none;stroke:#000000;stroke-width:2;stroke-miterlimit:10;stroke-dasharray:11.8535,11.8535;}
	.st9{fill:none;stroke:#000000;stroke-width:2;stroke-miterlimit:10;stroke-dasharray:12.0328,12.0328;}
	.st10{fill:none;stroke:#000000;stroke-width:2;stroke-miterlimit:10;stroke-dasharray:11.9587,11.9587;}
	.st11{fill:none;stroke:#000000;stroke-width:2;stroke-miterlimit:10;stroke-dasharray:10.9783,10.9783;}
	.st12{fill:none;stroke:#000000;stroke-width:2;stroke-miterlimit:10;stroke-dasharray:12.3179,12.3179;}
	.st13{fill:none;stroke:#000000;stroke-width:2;stroke-miterlimit:10;stroke-dasharray:12.1661,12.1661;}
	.st14{fill:none;stroke:#000000;stroke-width:2;stroke-miterlimit:10;stroke-dasharray:12.2351,12.2351;}
	.st15{fill:none;stroke:#000000;stroke-width:2;stroke-miterlimit:10;stroke-dasharray:11.2141,11.2141;}
	.st16{fill:none;stroke:#000000;stroke-width:2;stroke-miterlimit:10;stroke-dasharray:10.2648,10.2648;}
	.st17{fill:none;stroke:#000000;stroke-width:2;stroke-miterlimit:10;stroke-dasharray:13.1518,13.1518;}
	.st18{fill:none;stroke:#000000;stroke-width:2;stroke-miterlimit:10;stroke-dasharray:12.219,12.219;}
</style>
<g>
	<g>
		<g>
			<g>
				<path class="st0" d="M256.7,222.7c139.6,0,205-22.6,205-70.8C461.7,92.8,368,43,256.7,43c-110.8,0-205,49.8-205,108.9
					C51.7,158.6,35.9,222.7,256.7,222.7z"/>
				<path class="st1" d="M332.9,82.7c1.2-5.4,6.6-9.3,12.1-8.2c10.1,1.9,19.4,6.2,27.2,12.8c4.3,3.9,4.7,10.1,1.2,14.4
					c-1.9,2.3-7.8,5.9-14.4,1.2c-5.1-4.3-10.9-7-17.5-8.2C335.6,93.6,332.1,88.2,332.9,82.7z"/>
				<path class="st2" d="M318.5,143.4c2.3-5.1,8.6-7.4,13.6-5.1c5.4,2.3,10.9,4.7,16.7,6.2c5.4,1.6,8.6,7.4,7,12.8
					c-1.2,4.7-5.9,8.3-12.4,7c-6.6-1.9-13.2-4.3-19.4-7.4C318.5,154.7,316.2,148.4,318.5,143.4z"/>
				<path class="st3" d="M234.5,144.9c3.5-4.7,9.7-5.4,14.4-1.9c3.1,2.7,7,4.3,11.3,4.7c5.8,0.8,9.7,5.8,8.9,11.3
					c-0.4,5.4-5.3,9.8-11.3,9.3c-8.2-0.8-15.6-3.9-21.8-8.9C231.8,155.8,231,149.2,234.5,144.9z"/>
				<path class="st4" d="M196.4,92.1c0.4-5.4,5.4-9.7,10.9-9.3l15.2,1.2c5.8,0.4,10.1,5.4,9.7,10.9c-0.4,5.4-5.5,10.2-10.9,9.7
					l-15.2-1.6C200.3,102.6,196,97.5,196.4,92.1z"/>
				<path class="st5" d="M125.2,122c7.4-3.1,15.6-4.7,23.7-4.7c5.8,0,10.1,4.7,10.1,10.5c0,5.8-4.7,10.1-10.5,10.1
					c-5.1,0-10.5,1.2-15.2,3.1c-1.2,0.4-9.2,1.3-13.2-5.4C117.1,130.5,120.1,124.3,125.2,122z"/>
			</g>
		</g>
		<g>
			<g>
				<path class="st6" d="M461.1,339c-1.6-1.2-3.3-2.4-4.9-3.5c0,0-1.7,1.2-5.1,3.1"/>
				<path class="st7" d="M440.3,344.3c-26.8,13-87.8,35.9-183.2,34.8C156.3,377.9,92,352.4,67.9,340.8"/>
				<path class="st6" d="M62.5,338.1c-3.5-1.8-5.3-2.9-5.3-2.9c-1.7,1.1-3.4,2.2-5,3.4"/>
				<path class="st8" d="M43.1,346.1c-8,7.8-12.3,15.8-12.3,23.7c0,36.2,92.6,76.6,226,76.6c133,0,226-40.4,226-76.6
					c-0.7-10.5-8.1-19.7-17-27.2"/>
			</g>
		</g>
		<g>
			<g>
				<path class="st6" d="M118,284.7c-1.2-1.6-2.5-3.6-3.6-4.8c-0.8,0.4-2.7,1.9-3.9,3.1c-0.2,0.2-0.5,0.5-0.7,0.7"/>
				<path class="st9" d="M99.8,290.3c-5.2,1.8-11.1,1.7-17.7-0.4"/>
				<path class="st6" d="M76.4,287.7c-1.7-0.8-3.5-1.7-5.3-2.8c-0.8,1.9-1.7,3.7-2.7,5.4"/>
				<path class="st6" d="M59.8,301.2c-1.4,1.4-3,2.7-4.6,3.9c0,0,1.4,1.5,4.4,4.1"/>
				<path class="st10" d="M69.2,316.3c25.2,16.9,87.8,46.5,213.1,42.1c0,0,131.2-6.9,170.6-48.3"/>
				<path class="st6" d="M456.8,305.6c1.2-1.6,2.3-3.3,3.2-5.1c-1.2-0.2-3.3-0.7-5.8-1.5"/>
				<path class="st11" d="M443.6,296.2c-4.9-1.1-9.9-1.8-13.2-1.1c-17.3,6.7-28.8-0.4-31.5-1.9c-1.2-0.8-7.4-5-16.7,0
					c-7.8,5.2-27.4,3.1-40,1"/>
				<path class="st6" d="M336.8,293.2c-3.6-0.7-5.9-1.2-5.9-1.2l-2.7,5.4"/>
				<path class="st12" d="M322.8,308.4l-21.5,43.5c-1.6,2.7-3.9,4.7-7,5.4c-4.2,1-7-0.4-8.9-1.9c-3.8-2.8-90.1-75.1-99.2-75.1
					c-0.3,0-2.9,0.2-11.2,6.6c-15.4,12.6-37.3,21.2-53.3,2.7"/>
			</g>
		</g>
		<g>
			<g>
				<path class="st6" d="M467.7,201.7c-1.3-1.7-2.6-3.3-3.8-4.6c-1.3,1.5-2.8,2.9-4.3,4.2"/>
				<path class="st13" d="M450.1,208.9C407.6,238.1,328.3,243,256.2,243c-76.2,0-160.4-5.3-201-39.4"/>
				<path class="st6" d="M50.7,199.6c-1.4-1.4-2.8-2.9-4.1-4.4c-1.8,1.1-3.4,2.3-4.9,3.4"/>
				<path class="st14" d="M33.3,207.4c-4.5,6.3-5.3,11.8-4.1,13.1c3.9,3.9,3.6,9.5,0.8,13.6c-7,10-27.2,28.3-29.9,41.6
					c-0.5,2.3,14,21.4,15.2,22.2c8.7,0.8,31-6.6,35.4-17.5c1.9-3.5,9.7-24,35.4-11.3c3.9,1.9,5.8,1.9,5.8,1.9
					c1.2,0,10.3-12.5,22.6-12.4c13.7-0.6,21.6,17.6,24.1,19.1c7.4,5.1,25.1-8.7,30.7-13.2c3.1-1.9,15.9-11.5,32.3-0.8
					c1.9,1.2,8.8,5.7,17.9-0.4c0,0,12.9-7.4,40.4-5.4c15.2,1.2,45.6,4.7,86.3,14.8c8.1,2,16.7,3.1,23.3,1.6
					c5.2-0.6,17.1-5.7,26.8-5.2c1.9,0.1,4.4,0.8,7.2,1.8"/>
				<path class="st6" d="M409,273.3c1.9,0.9,3.7,1.9,5.2,2.9c1.7-0.9,3.6-1.6,5.6-2.1"/>
				<path class="st15" d="M430.9,272.8c12.8,0.1,25.3,4.2,25.3,4.2c15,4.8,26.3,6.3,32.7-12.4c3-22.2-7.8-44.1-17.8-58.4"/>
			</g>
		</g>
		<g>
			<g>
				<path class="st6" d="M307.6,293.5l2.7-5.4c0,0-2.2-0.6-5.8-1.5"/>
				<path class="st16" d="M294.5,284.4c-15.6-3.3-39.3-7.1-56-4.5"/>
				<path class="st6" d="M233.4,280.9c-2.1,0.6-3.9,1.2-5.6,2.1l4.7,3.8"/>
				<line class="st17" x1="242.8" y1="295" x2="278.7" y2="323.7"/>
				<polyline class="st6" points="283.8,327.9 288.5,331.6 291.2,326.2 				"/>
				<line class="st18" x1="296.7" y1="315.3" x2="304.9" y2="298.9"/>
			</g>
		</g>
	</g>
</g>
</svg>
