<svg width="14" height="20" viewBox="0 0 14 20" fill="none" xmlns="http://www.w3.org/2000/svg">
<path d="M5.3172 0.25C6.67657 6.55938 0.203134 6.43281 0.250009 12.7844C0.287509 17.9875 5.80001 19.75 7.02345 19.75C8.24688 19.75 13.3422 18.6437 13.7313 12.7844C14.0641 7.79687 9.90157 3.03438 5.3172 0.25ZM8.80001 16.8766C8.32188 18.7 5.70626 18.7047 5.21876 16.8812C5.14845 16.6187 5.10626 16.3422 5.10626 16.0609C5.10626 14.1391 7.00938 11.9219 7.00938 11.9219C7.00938 11.9219 8.90313 14.1391 8.90313 16.0609C8.90782 16.3422 8.87032 16.6141 8.80001 16.8766Z" fill="white"/>
</svg>
