<svg width="20" height="18" viewBox="0 0 20 18" fill="none" xmlns="http://www.w3.org/2000/svg">
<path d="M19.2765 14.7516C16.8484 14.3766 16.6656 14.2032 16.6656 14.2032C17.3969 10.7344 15.6156 7.12036 13.089 5.03442C9.72342 2.25942 4.60936 4.27505 0.624986 0.0562994C-0.303139 -0.928076 0.235924 11.0954 5.22342 15.6516C8.8703 18.9797 13.164 17.9579 14.3406 17.4141C15.4094 16.9172 16.1547 15.8251 16.1547 15.8251C18.1 16.4344 19.0609 16.4907 19.0609 16.4907C19.7453 16.5751 20.0922 14.8782 19.2765 14.7516ZM14.9734 15.0985C11.3312 14.0063 8.16249 11.3016 6.10936 9.18286C5.94061 9.00942 6.18436 8.75161 6.36717 8.90161C8.38749 10.5657 11.4719 12.6516 15.4281 13.9594C15.4375 14.3391 15.2172 14.8829 14.9734 15.0985Z" fill="white"/>
</svg>
