<svg width="38" height="38" viewBox="0 0 38 38" fill="none" xmlns="http://www.w3.org/2000/svg">
<path d="M31.5073 19.2204H31.4397C31.256 19.2394 31.0695 19.2529 30.8831 19.261H30.8534H30.6075H30.3238C30.2157 19.261 30.1104 19.261 30.0023 19.261H29.9347H29.6645H29.6159C29.3889 19.2448 29.1566 19.2204 28.9269 19.1907H28.8864C27.7415 19.0169 26.619 18.7189 25.5387 18.3019C25.4036 18.2505 25.2685 18.1938 25.1388 18.1398C24.8686 18.0263 24.5768 17.9074 24.2985 17.7912C23.3366 17.386 22.3396 16.9672 21.3264 16.6457C20.5683 16.4045 19.7792 16.2744 18.9838 16.2593H18.9C18.5196 16.247 18.1388 16.2696 17.7625 16.3269C17.3151 16.3841 16.8726 16.4744 16.4386 16.5971C16.5737 16.4296 16.7088 16.2593 16.8303 16.0891C17.099 15.7116 17.2951 15.2874 17.4086 14.8382C17.5247 14.5054 17.5342 14.1446 17.4356 13.8062L17.5193 13.7305C17.7569 13.5767 17.9755 13.3953 18.1705 13.1902C18.8954 12.633 19.6902 12.1734 20.5347 11.8231C22.0075 11.2009 23.6124 10.9566 25.2036 11.1125C29.9401 11.5908 31.7666 12.5958 35.1062 8.90253C33.2923 6.01217 30.7335 3.66351 27.6986 2.10316C24.6636 0.54282 21.2645 -0.171635 17.8582 0.0348196C14.4519 0.241274 11.1639 1.36102 8.33971 3.27648C5.51548 5.19195 3.25913 7.83245 1.80759 10.9207C2.64519 11.7312 4.3285 12.5418 7.61135 11.7988C8.28637 11.4335 9.04182 11.2421 9.80937 11.2421C10.5769 11.2421 11.3324 11.4335 12.0074 11.7988C17.6896 13.074 18.5866 9.73737 18.5866 9.73737C18.5866 12.0987 17.6436 13.1388 16.2143 13.5738C16.3219 13.6125 16.4251 13.6623 16.5223 13.7224C16.8276 13.9169 16.8817 14.1709 16.7466 14.6437C16.6502 15.0143 16.4902 15.3653 16.2737 15.6812C15.7334 16.4079 15.1308 17.0942 14.5553 17.7993C14.5553 17.7993 14.5553 17.7993 14.5553 17.8183C14.5557 17.8437 14.5627 17.8686 14.5756 17.8905C14.5886 17.9124 14.607 17.9305 14.6292 17.9431C14.6513 17.9556 14.6763 17.9622 14.7017 17.9621C14.7272 17.962 14.7521 17.9553 14.7742 17.9425L14.866 17.8966C15.7997 17.4307 16.8039 17.1221 17.8382 16.9834C18.185 16.9397 18.5343 16.9189 18.8838 16.9213C19.6397 16.9295 20.3901 17.0506 21.1102 17.2806C22.3936 17.6859 23.6311 18.2451 24.8929 18.7558L25.2982 18.9206C26.4202 19.4132 27.6129 19.7259 28.8323 19.8472C29.333 19.9147 29.8375 19.949 30.3427 19.9499C30.748 19.9499 31.2263 19.931 31.6072 19.8959C31.6072 20.7586 31.6072 21.6196 31.6072 22.4787V30.9541C31.6117 31.0729 31.5918 31.1913 31.5487 31.3021C31.5056 31.4129 31.4403 31.5137 31.3567 31.5982C31.2732 31.6828 31.1732 31.7493 31.0629 31.7937C30.9526 31.8381 30.8344 31.8595 30.7156 31.8565C30.494 31.8452 30.2845 31.7518 30.1282 31.5944C29.9718 31.4371 29.8797 31.227 29.8699 31.0054L29.8131 29.9842C29.5899 28.3034 29.1049 26.668 28.3757 25.1372L27.5651 27.7552C27.2949 28.609 27.0247 29.4546 26.7546 30.2976L26.4573 31.2972C26.4019 31.4784 26.282 31.6331 26.1203 31.7319C25.9586 31.8308 25.7663 31.867 25.5797 31.8338C25.3931 31.8005 25.2252 31.7001 25.1076 31.5514C24.99 31.4028 24.931 31.2162 24.9416 31.027C24.9416 31.027 25.4549 26.8015 25.2117 24.5726C23.0394 25.9478 20.6833 26.4881 18.1651 26.5178C18.1003 28.0389 18.0354 29.433 17.9706 30.9676V31.0621C17.971 31.1745 17.948 31.2857 17.9031 31.3887C17.8582 31.4918 17.7924 31.5843 17.7098 31.6605C17.6272 31.7368 17.5297 31.795 17.4234 31.8315C17.3171 31.868 17.2044 31.882 17.0924 31.8727C16.9067 31.8514 16.7336 31.7681 16.6012 31.6362C16.4688 31.5043 16.3848 31.3315 16.3629 31.1459L16.1765 29.8112C16.0162 28.7846 15.8577 27.7633 15.7009 26.7475H15.5929C15.4524 27.7336 15.3227 28.7224 15.1741 29.7194L15.0065 31.1027C14.9929 31.2143 14.9566 31.3219 14.8998 31.4189C14.8431 31.516 14.767 31.6004 14.6764 31.6669C14.5858 31.7335 14.4825 31.7808 14.373 31.806C14.2634 31.8311 14.1498 31.8336 14.0392 31.8132C13.8515 31.7751 13.6824 31.6739 13.5601 31.5265C13.4377 31.3791 13.3694 31.1943 13.3665 31.0027L13.2989 29.3817C13.2476 28.2821 13.1935 27.196 13.1341 26.1126C13.1065 25.9953 13.0519 25.8862 12.9747 25.7938V25.7776C12.3297 24.8001 11.8317 23.7333 11.4967 22.6111C11.2536 21.8006 10.9726 20.8523 10.7861 20.2147C11.269 20.0322 11.7061 19.7463 12.0668 19.3771C12.1506 19.2421 11.9858 19.107 11.8264 19.1907C11.5381 19.3547 11.2251 19.4706 10.8996 19.5338C10.3295 19.5825 9.75128 19.5636 9.17847 19.5555C9.02111 19.5656 8.8634 19.5423 8.71567 19.4872C8.56794 19.432 8.43354 19.3463 8.32128 19.2356C8.20902 19.1248 8.12144 18.9916 8.06428 18.8447C8.00712 18.6978 7.98168 18.5404 7.98962 18.3829C8.00636 18.0916 7.97533 17.7996 7.89775 17.5184C7.45443 16.4601 7.2046 15.3309 7.16013 14.1844C7.16013 13.9575 7.08447 13.8602 6.92506 13.8305C6.48734 13.8305 6.06044 13.8548 5.64704 13.8467C3.70435 13.8197 2.094 13.4604 1.3996 11.8447C0.343349 14.442 -0.124906 17.2408 0.0284334 20.0404C0.181773 22.84 0.952904 25.5709 2.2865 28.0373C3.6201 30.5036 5.4831 32.6443 7.74184 34.3056C10.0006 35.967 12.5991 37.1078 15.3509 37.6463C18.1026 38.1848 20.9395 38.1076 23.6579 37.4202C26.3764 36.7329 28.909 35.4524 31.074 33.6707C33.239 31.8889 34.9828 29.6501 36.1803 27.1149C37.3777 24.5796 37.9992 21.8108 38 19.007C38.0003 18.1804 37.947 17.3547 37.8406 16.5349C36.0511 18.0522 33.8421 18.9889 31.5073 19.2204Z" fill="#788EA1" fill-opacity="0.32"/>
</svg>
