<?xml version="1.0" encoding="iso-8859-1"?>
<!-- Generator: Adobe Illustrator 19.0.0, SVG Export Plug-In . SVG Version: 6.00 Build 0)  -->
<svg version="1.1" id="Layer_1" xmlns="http://www.w3.org/2000/svg" xmlns:xlink="http://www.w3.org/1999/xlink" x="0px" y="0px"
	 viewBox="0 0 512.039 512.039" style="enable-background:new 0 0 512.039 512.039;" xml:space="preserve">
<g>
	<g>
		<path d="M449.831,95.81c-37.961-8.353-76.177,12.972-89.003,49.664c-3.746,10.719-3.746,22.391,0,33.109
			c1.185,3.072,2.824,5.949,4.864,8.533c-6.457,3.351-13.161,6.204-20.053,8.533c-36.785,12.754-77.001,11.354-112.811-3.925
			c-11.482-5.024-22.22-11.599-31.915-19.541c-29.562-23.769-66.521-36.422-104.448-35.755
			c-31.026-0.148-61.473,8.395-87.893,24.661c-5.662,3.249-8.975,9.444-8.533,15.957c0.553,6.244,4.484,11.682,10.24,14.165
			c7.676,3.435,14.922,7.759,21.589,12.885c5.12,3.755,10.496,8.533,16.469,13.483c14.712,12.345,25.112,29.052,29.696,47.701
			c5.452,22.19,17.789,42.084,35.243,56.832c13.177,11.716,28.892,20.216,45.909,24.832c-5.587,12.16-17.765,19.934-31.147,19.883
			h-102.4c-4.713,0-8.533,3.82-8.533,8.533s3.82,8.533,8.533,8.533h37.461l5.205,10.667c7.618,14.634,22.842,23.716,39.339,23.467
			h202.923c16.496,0.25,31.721-8.832,39.339-23.467l5.205-10.667h37.461c4.713,0,8.533-3.82,8.533-8.533s-3.821-8.533-8.533-8.533
			h-102.4c-12.557,0.049-24.127-6.802-30.123-17.835c30.149-3.112,58.577-15.551,81.323-35.584c0,0.768,0,1.451,0,2.219
			c0,4.713,3.82,8.533,8.533,8.533s8.533-3.82,8.533-8.533c0-20.565,19.627-29.696,36.096-33.707
			c6.4-1.536,13.056-2.731,19.541-3.925c14.095-1.994,27.903-5.661,41.131-10.923c34.361-15.871,56.492-50.131,56.832-87.979
			C511.923,140.659,486.655,106.83,449.831,95.81z M152.957,200.856c-6.354-1.897-12.371-4.776-17.835-8.533
			c-15.663-10.477-34.15-15.925-52.992-15.616c-15.521-0.115-30.837,3.546-44.629,10.667c-6.384-4.627-13.216-8.601-20.395-11.861
			c23.863-14.641,51.365-22.27,79.36-22.016c33.864-0.483,66.83,10.898,93.184,32.171c6.034,4.994,12.454,9.502,19.2,13.483
			l-2.304,0.683c-11.088,3.068-18.768,13.156-18.773,24.661v21.845c0.226,4.441-2.695,8.431-6.997,9.557
			c-2.496,0.445-5.06-0.243-6.997-1.877c-1.973-1.643-3.102-4.088-3.072-6.656v-22.784
			C170.589,213.649,163.409,204.052,152.957,200.856z M187.773,298.562c-0.009,2.239-0.898,4.384-2.475,5.973
			c-0.804,0.807-1.761,1.446-2.816,1.877c-1.026,0.437-2.128,0.669-3.243,0.683c-2.281-0.01-4.462-0.931-6.059-2.56
			c-1.576-1.589-2.465-3.735-2.475-5.973c-0.013-2.268,0.877-4.448,2.475-6.059l1.28-1.024c0.475-0.325,0.991-0.583,1.536-0.768
			c0.509-0.257,1.057-0.43,1.621-0.512c1.066-0.251,2.176-0.251,3.243,0c0.565,0.082,1.112,0.255,1.621,0.512
			c0.545,0.185,1.061,0.443,1.536,0.768l1.28,1.024C186.857,294.139,187.741,296.303,187.773,298.562z M166.183,366.829
			c4.516-5.045,8.151-10.815,10.752-17.067h1.024h63.403c2.575,6.246,6.181,12.015,10.667,17.067H166.183z M448.295,251.458
			c-11.976,4.693-24.464,7.959-37.205,9.728c-6.741,1.195-13.653,2.475-20.565,4.181c-4.441,1.101-8.802,2.497-13.056,4.181
			c15.591-27.591,23.737-58.762,23.637-90.453c0.008-4.713-3.807-8.539-8.519-8.547c-2-0.003-3.938,0.696-5.475,1.977
			c-2.304,1.877-4.693,3.584-7.083,5.376c-1.583-1.551-2.832-3.409-3.669-5.461c-2.179-7.101-1.939-14.725,0.683-21.675
			c10.017-28.015,39.123-44.387,68.267-38.4c27.819,6.997,49.664,36.267,49.664,66.731
			C494.756,210.225,476.566,238.425,448.295,251.458z"/>
	</g>
</g>
<g>
</g>
<g>
</g>
<g>
</g>
<g>
</g>
<g>
</g>
<g>
</g>
<g>
</g>
<g>
</g>
<g>
</g>
<g>
</g>
<g>
</g>
<g>
</g>
<g>
</g>
<g>
</g>
<g>
</g>
</svg>
